<svg width="200" height="200" viewBox="0 0 1024 1024" xmlns="http://www.w3.org/2000/svg">
    <path d="M338.29 4.923H156.956c-8.163 0-11.347 5.225-7.14 12.304l138.594 240.2c1.147 1.965 1.147 5.32 0 7.15l-218.556 380.89c-4.204 7.08-1.024 12.303 7.14 12.303h181.336c5.806 0 10.585-3.287 13.181-8.743 0 0 218.752-381.6 219.108-382.307L356.962 13.669c-2.595-5.456-7.375-8.746-13.181-8.746zM866.083 0H684.748c-5.806 0-10.586 3.288-13.18 8.745 0 0-438.8 764.087-438.92 764.305 0.78 1.695 218.63 382.306 218.63 382.306 2.596 5.456 7.375 8.744 13.18 8.744H866.085c8.163 0 11.345-5.224 7.142-12.304L735.832 635.182c-1.148-1.965-1.148-5.32 0-7.151L1014.386 31.3c4.204-7.08 1.024-12.303-7.141-12.303z" fill="#006567"/>
</svg>
